<?xml version="1.0" encoding="utf-8"?>
<!-- Generator: Adobe Illustrator 19.1.0, SVG Export Plug-In . SVG Version: 6.00 Build 0)  -->
<!DOCTYPE svg PUBLIC "-//W3C//DTD SVG 1.1//EN" "http://www.w3.org/Graphics/SVG/1.1/DTD/svg11.dtd">
<svg version="1.1" id="Layer_1" xmlns="http://www.w3.org/2000/svg" xmlns:xlink="http://www.w3.org/1999/xlink" x="0px" y="0px"
	 width="290.6px" height="67.7px" viewBox="-104 967.3 290.6 67.7" style="enable-background:new -104 967.3 290.6 67.7;"
	 xml:space="preserve">
<style type="text/css">
	.st0{fill:#FFFFFF;}
	.st1{fill:#FFFFFF;stroke:#FFFFFF;stroke-width:7.391647e-02;stroke-miterlimit:10;}
	.st2{fill:#1D3649;}
	.st3{fill:#00B4A0;}
	.st4{fill:#5AAAFA;}
	.st5{fill:#5A6464;}
</style>
<g>
	<g>
		<g>
			<path class="st0" d="M-18.6,987.2h2.6v27.1h-2.6V987.2z"/>
			<path class="st0" d="M-12.8,987.2h11.5c4.6,0,8.7,1.6,8.7,6.6c0,2.8-1.9,5.5-4.7,6.1v0.1c3.5,0.5,5.7,3.1,5.7,6.6
				c0,2.6-0.9,7.7-9.7,7.7h-11.5V987.2z M-10.2,999.1h8.9c4.1,0,6.1-2,6.1-4.6c0-3.4-2-5.1-6.1-5.1h-8.9V999.1z M-10.2,1012.1h8.9
				c3.8,0,7.1-1.2,7.1-5.6c0-3.5-2.6-5.2-7.1-5.2h-8.9V1012.1z"/>
			<path class="st0" d="M10.8,987.2h3.8L24,1011l9.3-23.8h3.8v27.1h-2.6v-23.4h-0.1l-9.2,23.4h-2.4l-9.3-23.4h-0.1v23.4h-2.6
				C10.8,1014.3,10.8,987.2,10.8,987.2z"/>
		</g>
		<path class="st0" d="M48.5,987.2h12.8c5.2,0,8.7,1.7,8.7,6.7c0,2.7-1.3,4.5-3.7,5.7c3.3,0.9,5,3.5,5,6.9c0,5.5-4.7,7.9-9.6,7.9
			H48.6L48.5,987.2L48.5,987.2z M54.4,998.2h6c2.1,0,3.6-0.9,3.6-3.2c0-2.5-2-3.1-4.1-3.1h-5.6v6.3H54.4z M54.4,1009.7h6.4
			c2.3,0,4.4-0.8,4.4-3.6s-1.7-3.9-4.3-3.9h-6.5L54.4,1009.7L54.4,1009.7z"/>
		<path class="st0" d="M73.8,987.2h5.4v27.1h-5.4V987.2z"/>
		<path class="st0" d="M100.8,1014.3h-5.1v-2.7h-0.1c-1.4,2.2-3.7,3.3-6,3.3c-5.7,0-7.2-3.2-7.2-8.1v-12.1h5.4v11.1
			c0,3.2,0.9,4.8,3.5,4.8c2.9,0,4.2-1.6,4.2-5.6v-10.3h5.4L100.8,1014.3L100.8,1014.3z"/>
		<path class="st0" d="M108.7,1005.8c0.2,3.5,1.8,5,4.8,5c2.2,0,3.9-1.3,4.3-2.5h4.7c-1.5,4.7-4.7,6.6-9.2,6.6
			c-6.2,0-10-4.3-10-10.3c0-5.9,4.1-10.4,10-10.4c6.7,0,9.9,5.6,9.5,11.7L108.7,1005.8L108.7,1005.8z M117.5,1002.4
			c-0.5-2.7-1.7-4.2-4.3-4.2c-3.5,0-4.4,2.7-4.5,4.2H117.5z"/>
		<path class="st0" d="M125.6,994.7h5.1v2.7h0.1c1.4-2,3.4-3.2,6-3.2c2.5,0,4.7,0.9,5.7,3.3c1.2-1.7,3.2-3.3,5.9-3.3
			c4.2,0,7.2,1.9,7.2,7v13.1h-5.4v-11.1c0-2.6-0.2-4.8-3.3-4.8c-3,0-3.6,2.5-3.6,5v10.9h-5.4v-11c0-2.3,0.2-4.9-3.3-4.9
			c-1.1,0-3.6,0.7-3.6,4.5v11.4h-5.4V994.7z"/>
		<path class="st0" d="M164.3,991.7h-5.4v-4.4h5.4V991.7z M158.9,994.7h5.4v19.6h-5.4V994.7z"/>
		<path class="st0" d="M173.3,1004l-6.5-9.3h6.1l3.5,5.1l3.4-5.1h6l-6.5,9.2l7.2,10.4h-6.1l-4.1-6.2l-4.1,6.2h-6L173.3,1004z"/>
	</g>
	<g>
		<path class="st1" d="M-45.1,1001l9.6-16.6l-9.9-17.1h-19.8l-9.6,16.6H-94l-10,17.1l9.6,16.7l0.4,0.6h0.7h17.2c1.1,0,1.3,0,1.3,0
			s0.1,0.2,0.6,1.1l8.6,14.9l0.4,0.6h0.7h18.4h0.7l0.4-0.6l9.6-16.6L-45.1,1001z"/>
		<g>
			<path class="st2" d="M-82.7,1001c0,2.4,0.5,4.7,1.4,6.9c0.9,2.1,2.2,4,3.8,5.7c0.4,0.4,0.7,0.7,1.1,1v-27.3
				c-0.4,0.3-0.8,0.7-1.1,1c-1.6,1.6-2.9,3.5-3.8,5.7C-82.3,996.3-82.7,998.6-82.7,1001z"/>
		</g>
		<g>
			<path class="st3" d="M-52.3,988.4c-1.6-1.6-3.5-2.9-5.7-3.8c-2.2-0.9-4.5-1.4-6.9-1.4c-2.1,0-4.1,0.4-6.1,1.1l23.7,13.7
				c-0.2-1.3-0.6-2.6-1.1-3.8C-49.3,992-50.6,990-52.3,988.4z"/>
		</g>
		<g>
			<path class="st3" d="M-73.2,985.2L-73.2,985.2l8.7,15.1H-47c0-0.2,0-0.4,0-0.6l-25.6-14.8C-72.8,985-73,985.1-73.2,985.2z"/>
		</g>
		<g>
			<path class="st4" d="M-47,1001.7L-47,1001.7h-17.4l0,0l-8.7,15.1l0,0c0.2,0.1,0.3,0.2,0.5,0.3l25.5-14.8
				C-47.1,1002.1-47,1001.9-47,1001.7z"/>
		</g>
		<g>
			<path class="st4" d="M-57.9,1017.5c2.1-0.9,4-2.2,5.7-3.8c1.6-1.6,2.9-3.5,3.8-5.7c0.5-1.2,0.9-2.5,1.1-3.9l-23.7,13.7
				c2,0.7,4,1.1,6.1,1.1C-62.5,1018.9-60.1,1018.4-57.9,1017.5z"/>
		</g>
		<g>
			<path class="st2" d="M-65.7,1001L-65.7,1001L-65.7,1001l-8.7-15.1l0,0c-0.1,0-0.5,0.3-0.5,0.3v29.5c0.2,0.1,0.3,0.2,0.5,0.3l0,0
				L-65.7,1001z"/>
		</g>
		<g>
			<path class="st5" d="M-64.5,1001.7L-64.5,1001.7L-64.5,1001.7z"/>
		</g>
		<g>
			<path class="st3" d="M-64.9,981.8c9.9,0,18,7.4,19.1,17c0,0.3,0.1,0.5,0.1,0.8l0,0l8.8-15.2l-9.2-16h-18.4l-8.8,15.3
				c0.3-0.1,0.5-0.3,0.8-0.4C-70.2,982.4-67.6,981.8-64.9,981.8z"/>
		</g>
		<g>
			<rect x="-73.1" y="1018.3" class="st5" width="0" height="0.7"/>
		</g>
		<g>
			<path class="st4" d="M-45.7,1002.4L-45.7,1002.4c0,0.3,0,0.6-0.1,0.8c-1.1,9.6-9.2,17-19.1,17c-2.7,0-5.3-0.6-7.6-1.6
				c-0.3-0.1-0.5-0.2-0.8-0.4l8.8,15.3h18.4l9.2-15.9L-45.7,1002.4z"/>
		</g>
		<g>
			<path class="st2" d="M-75.6,985.1h-17.7l-9.2,15.9l9.2,15.9h17.6l0,0c-0.2-0.2-0.5-0.3-0.7-0.5c-4.7-3.5-7.7-9.1-7.7-15.4
				s3-11.9,7.7-15.4C-76.1,985.4-75.9,985.2-75.6,985.1z"/>
		</g>
	</g>
</g>
</svg>
