<?xml version="1.0" encoding="utf-8"?>
<!-- Generator: Adobe Illustrator 19.1.0, SVG Export Plug-In . SVG Version: 6.00 Build 0)  -->
<!DOCTYPE svg PUBLIC "-//W3C//DTD SVG 1.1//EN" "http://www.w3.org/Graphics/SVG/1.1/DTD/svg11.dtd">
<svg version="1.1" id="Layer_1" xmlns="http://www.w3.org/2000/svg" xmlns:xlink="http://www.w3.org/1999/xlink" x="0px" y="0px"
	 width="290.2px" height="67.6px" viewBox="-104 967.4 290.2 67.6" style="enable-background:new -104 967.4 290.2 67.6;"
	 xml:space="preserve">
<style type="text/css">
	.st0{fill:#1D3649;}
	.st1{fill:#00B29F;}
	.st2{fill:#5AAAFA;}
	.st3{fill:#90908F;}
</style>
<g>
	<g>
		<g>
			<path class="st0" d="M-19,987.3h2.6v27.1H-19V987.3z"/>
			<path class="st0" d="M-13.2,987.3h11.5c4.6,0,8.7,1.6,8.7,6.6c0,2.8-1.9,5.5-4.7,6.1v0.1c3.5,0.5,5.7,3.1,5.7,6.6
				c0,2.6-0.9,7.7-9.7,7.7h-11.5V987.3z M-10.6,999.2h8.9c4.1,0,6.1-2,6.1-4.6c0-3.4-2-5.1-6.1-5.1h-8.9V999.2z M-10.6,1012.2h8.9
				c3.8,0,7.1-1.2,7.1-5.6c0-3.5-2.6-5.2-7.1-5.2h-8.9V1012.2z"/>
			<path class="st0" d="M10.4,987.3h3.8l9.4,23.8l9.3-23.8h3.8v27.1h-2.6V991H34l-9.2,23.4h-2.4L13.1,991H13v23.4h-2.6V987.3z"/>
		</g>
		<path class="st0" d="M48.1,987.3h12.8c5.2,0,8.7,1.7,8.7,6.7c0,2.7-1.3,4.5-3.7,5.7c3.3,0.9,5,3.5,5,6.9c0,5.5-4.7,7.9-9.6,7.9
			H48.2L48.1,987.3L48.1,987.3z M54.1,998.3h6c2.1,0,3.6-0.9,3.6-3.2c0-2.5-2-3.1-4.1-3.1H54v6.3H54.1z M54.1,1009.8h6.4
			c2.3,0,4.4-0.8,4.4-3.6s-1.7-3.9-4.3-3.9h-6.5L54.1,1009.8L54.1,1009.8z"/>
		<path class="st0" d="M73.4,987.3h5.4v27.1h-5.4V987.3z"/>
		<path class="st0" d="M100.4,1014.4h-5.1v-2.7h-0.1c-1.4,2.2-3.7,3.3-6,3.3c-5.7,0-7.2-3.2-7.2-8.1v-12.1h5.4v11.1
			c0,3.2,0.9,4.8,3.5,4.8c2.9,0,4.2-1.6,4.2-5.6v-10.3h5.4L100.4,1014.4L100.4,1014.4z"/>
		<path class="st0" d="M108.3,1005.9c0.2,3.5,1.8,5,4.8,5c2.2,0,3.9-1.3,4.3-2.5h4.7c-1.5,4.7-4.7,6.6-9.2,6.6
			c-6.2,0-10-4.3-10-10.3c0-5.9,4.1-10.4,10-10.4c6.7,0,9.9,5.6,9.5,11.7L108.3,1005.9L108.3,1005.9z M117.1,1002.5
			c-0.5-2.7-1.7-4.2-4.3-4.2c-3.5,0-4.4,2.7-4.5,4.2H117.1z"/>
		<path class="st0" d="M125.3,994.8h5.1v2.6h0.1c1.4-2,3.4-3.2,6-3.2c2.5,0,4.7,0.9,5.7,3.3c1.2-1.7,3.2-3.3,5.9-3.3
			c4.2,0,7.2,1.9,7.2,7v13.2h-5.4v-11.1c0-2.6-0.2-4.8-3.3-4.8c-3,0-3.6,2.5-3.6,5v10.9h-5.4v-11c0-2.3,0.2-4.9-3.3-4.9
			c-1.1,0-3.6,0.7-3.6,4.5v11.4h-5.4L125.3,994.8L125.3,994.8z"/>
		<path class="st0" d="M163.9,991.8h-5.4v-4.4h5.4V991.8z M158.5,994.8h5.4v19.6h-5.4V994.8z"/>
		<path class="st0" d="M172.9,1004.1l-6.5-9.3h6.1l3.5,5.1l3.4-5.1h6l-6.5,9.2l7.2,10.4H180l-4.1-6.2l-4.1,6.2h-6L172.9,1004.1z"/>
	</g>
	<g>
		<path class="st0" d="M-83.5,1001.2c0,2.5,0.5,4.9,1.5,7.2c0.9,2.2,2.3,4.2,4,5.9c0.4,0.4,0.8,0.7,1.2,1.1v-28.3
			c-0.4,0.3-0.8,0.7-1.2,1.1c-1.7,1.7-3,3.7-4,5.9S-83.5,998.7-83.5,1001.2z"/>
		<path class="st1" d="M-51.9,988.1c-1.7-1.7-3.7-3-5.9-4c-2.3-1-4.7-1.5-7.2-1.5c-2.2,0-4.3,0.4-6.3,1.1l24.6,14.2
			c-0.2-1.4-0.6-2.7-1.2-4C-48.8,991.8-50.2,989.8-51.9,988.1z"/>
		<path class="st1" d="M-73.6,984.8L-73.6,984.8l9,15.6h18.1c0-0.2,0-0.4,0-0.6L-73,984.5C-73.2,984.6-73.4,984.7-73.6,984.8z"/>
		<path class="st2" d="M-46.4,1002L-46.4,1002h-18.1l0,0l-9,15.7l0,0c0.2,0.1,0.4,0.2,0.5,0.3l26.5-15.3
			C-46.5,1002.4-46.5,1002.2-46.4,1002z"/>
		<path class="st2" d="M-57.7,1018.3c2.2-0.9,4.2-2.3,5.9-4c1.7-1.7,3-3.7,4-5.9c0.5-1.3,0.9-2.6,1.2-4l-24.7,14.2
			c2,0.7,4.2,1.1,6.3,1.1C-62.5,1019.7-60,1019.2-57.7,1018.3z"/>
		<path class="st0" d="M-65.9,1001.2L-65.9,1001.2L-65.9,1001.2l-9-15.6l0,0c-0.1,0-0.5,0.3-0.5,0.3v30.6c0.2,0.1,0.3,0.2,0.5,0.3
			l0,0L-65.9,1001.2z"/>
		<polygon class="st3" points="-64.6,1001.9 -64.6,1002 -64.6,1002 		"/>
		<path class="st1" d="M-65,981.3c10.2,0,18.7,7.7,19.8,17.6c0,0.3,0.1,0.6,0.1,0.8l0,0l9.1-15.8l-9.5-16.5h-19l-9.2,15.9
			c0.3-0.1,0.6-0.3,0.8-0.4C-70.4,981.8-67.8,981.3-65,981.3z"/>
		<rect x="-73.5" y="1019.1" class="st3" width="0" height="0.7"/>
		<path class="st2" d="M-45.1,1002.6L-45.1,1002.6c0,0.3,0,0.6-0.1,0.9c-1.1,9.9-9.5,17.7-19.8,17.7c-2.8,0-5.5-0.6-7.9-1.6
			c-0.3-0.1-0.5-0.2-0.8-0.4l9.1,15.8h19.1l9.5-16.5L-45.1,1002.6z"/>
		<path class="st0" d="M-76.1,984.7h-18.4l-9.5,16.5l9.5,16.5h18.3l0,0c-0.2-0.2-0.5-0.3-0.7-0.5c-4.9-3.6-8-9.4-8-16
			c0-6.5,3.2-12.4,8-16C-76.6,985-76.4,984.8-76.1,984.7z"/>
	</g>
</g>
</svg>
